<?xml version="1.0" encoding="utf-8"?>
<!-- Generator: Adobe Illustrator 25.2.1, SVG Export Plug-In . SVG Version: 6.00 Build 0)  -->
<svg version="1.1" id="Layer_1" xmlns="http://www.w3.org/2000/svg" xmlns:xlink="http://www.w3.org/1999/xlink" x="0px" y="0px"
	 viewBox="0 0 400 400" style="enable-background:new 0 0 400 400;" xml:space="preserve">
<style type="text/css">
	.st0{fill:#FFFFFF;}
</style>
<g>
	<path class="st0" d="M99,1v98H1V1H99 M100,0H0v100h100V0L100,0z"/>
</g>
<g>
	<path class="st0" d="M199,1v98h-98V1H199 M200,0H100v100h100V0L200,0z"/>
</g>
<g>
	<path class="st0" d="M299,1v98h-98V1H299 M300,0H200v100h100V0L300,0z"/>
</g>
<g>
	<path class="st0" d="M399,1v98h-98V1H399 M400,0H300v100h100V0L400,0z"/>
</g>
<g>
	<path class="st0" d="M99,101v98H1v-98H99 M100,100H0v100h100V100L100,100z"/>
</g>
<g>
	<path class="st0" d="M199,101v98h-98v-98H199 M200,100H100v100h100V100L200,100z"/>
</g>
<g>
	<path class="st0" d="M299,101v98h-98v-98H299 M300,100H200v100h100V100L300,100z"/>
</g>
<g>
	<path class="st0" d="M399,101v98h-98v-98H399 M400,100H300v100h100V100L400,100z"/>
</g>
<g>
	<path class="st0" d="M99,201v98H1v-98H99 M100,200H0v100h100V200L100,200z"/>
</g>
<g>
	<path class="st0" d="M199,201v98h-98v-98H199 M200,200H100v100h100V200L200,200z"/>
</g>
<g>
	<path class="st0" d="M299,201v98h-98v-98H299 M300,200H200v100h100V200L300,200z"/>
</g>
<g>
	<path class="st0" d="M399,201v98h-98v-98H399 M400,200H300v100h100V200L400,200z"/>
</g>
<g>
	<path class="st0" d="M99,301v98H1v-98H99 M100,300H0v100h100V300L100,300z"/>
</g>
<g>
	<path class="st0" d="M199,301v98h-98v-98H199 M200,300H100v100h100V300L200,300z"/>
</g>
<g>
	<path class="st0" d="M299,301v98h-98v-98H299 M300,300H200v100h100V300L300,300z"/>
</g>
<g>
	<path class="st0" d="M399,301v98h-98v-98H399 M400,300H300v100h100V300L400,300z"/>
</g>
</svg>
